<?xml version="1.0" encoding="UTF-8"?>
<svg xmlns="http://www.w3.org/2000/svg" viewBox="0 0 600 750">
  <style>
    text { font-family: -apple-system, BlinkMacSystemFont, 'Segoe UI', Roboto, sans-serif; }
  </style>

  <!-- Title -->
  <text x="200" y="30" font-size="18" font-weight="bold" fill="#1f2937">Coverage Certificate</text>
  <text x="200" y="50" font-size="12" fill="#6b7280">ID: f50a9c68-0221-4440-b6df-fc2e96156818</text>
  <text x="200" y="65" font-size="12" fill="#6b7280">Grade: WEAK</text>

  <!-- Kappa bar -->
  <text x="10" y="95" font-size="13" font-weight="bold" fill="#374151">Coverage (κ)</text>
  <rect x="150" y="70" width="400" height="30" fill="#e5e7eb" rx="5"/>
  <rect x="150" y="70" width="221" height="30" fill="#ef4444" rx="5"/>
  <text x="560" y="90" font-size="14" font-weight="bold" fill="#1f2937">55.42%</text>

  <!-- Stats -->
  <text x="10" y="125" font-size="12" fill="#374151">Samples: 6500 (55.4% pass)</text>
  <text x="300" y="125" font-size="12" fill="#374151">Regions: 1 | Violations: 7</text>
  <text x="10" y="145" font-size="12" fill="#374151">ε_a: 0.001803  ε_e: 0.016845  δ: 0.0500</text>

  <!-- Element coverage -->
    <text x="10" y="195" font-size="11" fill="#666">00e89328</text>
    <rect x="150" y="180" width="400" height="20" fill="#e5e7eb" rx="3"/>
    <rect x="150" y="180" width="0" height="20" fill="#ef4444" rx="3"/>
    <text x="560" y="195" font-size="11" fill="#333">0.0%</text>
    <text x="10" y="230" font-size="11" fill="#666">0adac0db</text>
    <rect x="150" y="215" width="400" height="20" fill="#e5e7eb" rx="3"/>
    <rect x="150" y="215" width="400" height="20" fill="#22c55e" rx="3"/>
    <text x="560" y="230" font-size="11" fill="#333">100.0%</text>
    <text x="10" y="265" font-size="11" fill="#666">2777476e</text>
    <rect x="150" y="250" width="400" height="20" fill="#e5e7eb" rx="3"/>
    <rect x="150" y="250" width="72" height="20" fill="#ef4444" rx="3"/>
    <text x="560" y="265" font-size="11" fill="#333">18.2%</text>
    <text x="10" y="300" font-size="11" fill="#666">3a66412e</text>
    <rect x="150" y="285" width="400" height="20" fill="#e5e7eb" rx="3"/>
    <rect x="150" y="285" width="400" height="20" fill="#22c55e" rx="3"/>
    <text x="560" y="300" font-size="11" fill="#333">100.0%</text>
    <text x="10" y="335" font-size="11" fill="#666">4f6b8828</text>
    <rect x="150" y="320" width="400" height="20" fill="#e5e7eb" rx="3"/>
    <rect x="150" y="320" width="364" height="20" fill="#eab308" rx="3"/>
    <text x="560" y="335" font-size="11" fill="#333">91.2%</text>
    <text x="10" y="370" font-size="11" fill="#666">61b54ee6</text>
    <rect x="150" y="355" width="400" height="20" fill="#e5e7eb" rx="3"/>
    <rect x="150" y="355" width="195" height="20" fill="#ef4444" rx="3"/>
    <text x="560" y="370" font-size="11" fill="#333">48.8%</text>
    <text x="10" y="405" font-size="11" fill="#666">6bb57825</text>
    <rect x="150" y="390" width="400" height="20" fill="#e5e7eb" rx="3"/>
    <rect x="150" y="390" width="400" height="20" fill="#22c55e" rx="3"/>
    <text x="560" y="405" font-size="11" fill="#333">100.0%</text>
    <text x="10" y="440" font-size="11" fill="#666">6d47b967</text>
    <rect x="150" y="425" width="400" height="20" fill="#e5e7eb" rx="3"/>
    <rect x="150" y="425" width="96" height="20" fill="#ef4444" rx="3"/>
    <text x="560" y="440" font-size="11" fill="#333">24.0%</text>
    <text x="10" y="475" font-size="11" fill="#666">96b89b3c</text>
    <rect x="150" y="460" width="400" height="20" fill="#e5e7eb" rx="3"/>
    <rect x="150" y="460" width="0" height="20" fill="#ef4444" rx="3"/>
    <text x="560" y="475" font-size="11" fill="#333">0.0%</text>
    <text x="10" y="510" font-size="11" fill="#666">c750b983</text>
    <rect x="150" y="495" width="400" height="20" fill="#e5e7eb" rx="3"/>
    <rect x="150" y="495" width="152" height="20" fill="#ef4444" rx="3"/>
    <text x="560" y="510" font-size="11" fill="#333">38.2%</text>

</svg>